# xmcd
#
# Track frame offsets: 
#        150
#        17749
#        33746
#        49162
#        63894
#        78925
#        101476
#        112247
#        128475
#        149159
#        163230
#        180768
#        197876
#        213129
#        240098
#        250297
#        263788
#        277559
#        291109
#        303013
#
# Disc length: 4187 seconds
#
# Revision: 0
# Processed by: cddbd v1.5.2PL0 Copyright (c) Steve Scherf et al.
# Submitted via: ExactAudioCopyFreeDBPlugin 1.0
#
DISCID=10105914
DTITLE=Dimitri van Toren - Liedjes om te koesteren Disk 5
DYEAR=2017
DGENRE=Nederlands
TTITLE0=Als ik aan jou denk
TTITLE1=Die zijn zo alleen
TTITLE2=Warm hart
TTITLE3=Keren dat ik aan je denk (indachtig Jules de Corte)
TTITLE4=Wat ik zoal doe
TTITLE5=Is Liefde wel genoeg
TTITLE6=Magnifieke oog
TTITLE7=Reisgenoten
TTITLE8=Hetzelfde aambeeld
TTITLE9=Doorsnee
TTITLE10=Suggestie
TTITLE11=Drink niet alleen
TTITLE12=Gadeslaan
TTITLE13=Zekerheid
TTITLE14=De Nozempjes
TTITLE15=Zonder jou Jaqueline
TTITLE16=Zoals de lente was jij
TTITLE17=Zonder jou
TTITLE18=Zon en wonderland
TTITLE19=Tanja
EXTD=
EXTT0=
EXTT1=
EXTT2=
EXTT3=
EXTT4=
EXTT5=
EXTT6=
EXTT7=
EXTT8=
EXTT9=
EXTT10=
EXTT11=
EXTT12=
EXTT13=
EXTT14=
EXTT15=
EXTT16=
EXTT17=
EXTT18=
EXTT19=
PLAYORDER=
